<svg xmlns="http://www.w3.org/2000/svg" viewBox="0 0 256 256" width="256" height="256" fill="none">
<circle cx="117" cy="142" r="2.0" fill="#CFE0FF" opacity="0.57"/><circle cx="213" cy="54" r="2.6" fill="#CFE0FF" opacity="0.59"/><circle cx="155" cy="53" r="2.0" fill="#CFE0FF" opacity="0.48"/><circle cx="30" cy="202" r="2.6" fill="#CFE0FF" opacity="0.68"/><circle cx="151" cy="103" r="2.0" fill="#CFE0FF" opacity="0.69"/><circle cx="156" cy="46" r="1.4" fill="#CFE0FF" opacity="0.80"/><circle cx="23" cy="17" r="1.4" fill="#CFE0FF" opacity="0.66"/><circle cx="195" cy="86" r="2.6" fill="#CFE0FF" opacity="0.81"/><circle cx="133" cy="162" r="2.0" fill="#CFE0FF" opacity="0.30"/><circle cx="28" cy="165" r="2.0" fill="#CFE0FF" opacity="0.90"/><circle cx="247" cy="210" r="2.6" fill="#CFE0FF" opacity="0.45"/><circle cx="190" cy="131" r="1.4" fill="#CFE0FF" opacity="0.34"/><circle cx="192" cy="104" r="2.0" fill="#CFE0FF" opacity="0.53"/><circle cx="238" cy="211" r="1.4" fill="#CFE0FF" opacity="0.43"/><circle cx="230" cy="21" r="2.0" fill="#CFE0FF" opacity="0.89"/><circle cx="103" cy="26" r="2.6" fill="#CFE0FF" opacity="0.42"/><circle cx="170" cy="89" r="2.0" fill="#CFE0FF" opacity="0.50"/><circle cx="239" cy="190" r="1.4" fill="#CFE0FF" opacity="0.38"/><circle cx="178" cy="11" r="2.0" fill="#CFE0FF" opacity="0.78"/><circle cx="51" cy="142" r="2.0" fill="#CFE0FF" opacity="0.61"/><circle cx="244" cy="193" r="2.0" fill="#CFE0FF" opacity="0.69"/><circle cx="36" cy="109" r="1.4" fill="#CFE0FF" opacity="0.30"/><circle cx="215" cy="242" r="2.6" fill="#CFE0FF" opacity="0.48"/><circle cx="220" cy="59" r="2.0" fill="#CFE0FF" opacity="0.90"/><circle cx="152" cy="146" r="1.4" fill="#CFE0FF" opacity="0.89"/><circle cx="59" cy="70" r="2.6" fill="#CFE0FF" opacity="0.50"/>
</svg>
