<svg xmlns="http://www.w3.org/2000/svg" viewBox="0 0 140 140" width="140" height="140">
  <defs>
    <linearGradient id="hbody" x1="0" y1="0" x2="1" y2="0">
      <stop offset="0" stop-color="#f2f5f8"/>
      <stop offset="0.5" stop-color="#c2c9d3"/>
      <stop offset="1" stop-color="#868e9c"/>
    </linearGradient>
    <linearGradient id="hpanel" x1="0" y1="0" x2="0" y2="1">
      <stop offset="0" stop-color="#3a5ea6"/>
      <stop offset="1" stop-color="#13203f"/>
    </linearGradient>
    <linearGradient id="hgold" x1="0" y1="0" x2="0" y2="1">
      <stop offset="0" stop-color="#e8b657"/>
      <stop offset="1" stop-color="#9d6b1a"/>
    </linearGradient>
  </defs>
  <g transform="translate(70 70)" stroke="#2b3040" stroke-width="1.5" stroke-linejoin="round">
    <line x1="-16" y1="0" x2="-24" y2="0" stroke="#6b7280" stroke-width="3"/>
    <line x1="16" y1="0" x2="24" y2="0" stroke="#6b7280" stroke-width="3"/>
    <rect x="-72" y="-22" width="48" height="44" rx="2" fill="url(#hpanel)"/>
    <rect x="24" y="-22" width="48" height="44" rx="2" fill="url(#hpanel)"/>
    <g stroke="#8fb0e6" stroke-width="0.8" opacity="0.5" stroke-linecap="round">
      <line x1="-56" y1="-22" x2="-56" y2="22"/>
      <line x1="-40" y1="-22" x2="-40" y2="22"/>
      <line x1="40" y1="-22" x2="40" y2="22"/>
      <line x1="56" y1="-22" x2="56" y2="22"/>
      <line x1="-72" y1="0" x2="-24" y2="0"/>
      <line x1="24" y1="0" x2="72" y2="0"/>
    </g>
    <rect x="-16" y="-46" width="32" height="90" rx="14" fill="url(#hbody)"/>
    <rect x="-16" y="6" width="32" height="16" fill="url(#hgold)" stroke="none"/>
    <ellipse cx="0" cy="-44" rx="14" ry="5" fill="#0e1116" stroke="#8a919e"/>
    <ellipse cx="0" cy="-45" rx="9" ry="3" fill="#1c2740" stroke="none"/>
    <g stroke="#8a919e" stroke-width="1" opacity="0.8">
      <line x1="-16" y1="-20" x2="16" y2="-20"/>
      <line x1="-16" y1="30" x2="16" y2="30"/>
    </g>
    <rect x="-11" y="-40" width="5" height="80" rx="2.5" fill="#ffffff" opacity="0.35" stroke="none"/>
    <line x1="0" y1="44" x2="0" y2="53" stroke="#6b7280" stroke-width="2"/>
    <ellipse cx="0" cy="55" rx="9" ry="4" fill="#d7dde6"/>
  </g>
</svg>
