<svg xmlns="http://www.w3.org/2000/svg" viewBox="0 0 140 140" width="140" height="140">
  <defs>
    <linearGradient id="sgold" x1="0" y1="0" x2="1" y2="1">
      <stop offset="0" stop-color="#e7c25e"/>
      <stop offset="0.5" stop-color="#c69a34"/>
      <stop offset="1" stop-color="#8f6417"/>
    </linearGradient>
    <linearGradient id="spanel" x1="0" y1="0" x2="0" y2="1">
      <stop offset="0" stop-color="#3a5ea6"/>
      <stop offset="1" stop-color="#13203f"/>
    </linearGradient>
    <radialGradient id="sdish" cx="0.4" cy="0.35" r="0.8">
      <stop offset="0" stop-color="#ffffff"/>
      <stop offset="1" stop-color="#b9c2ce"/>
    </radialGradient>
  </defs>
  <g transform="translate(70 74)" stroke="#2b3040" stroke-width="1.5" stroke-linejoin="round">
    <line x1="-14" y1="0" x2="-30" y2="0" stroke="#6b7280" stroke-width="3"/>
    <line x1="14" y1="0" x2="30" y2="0" stroke="#6b7280" stroke-width="3"/>
    <rect x="-86" y="-16" width="56" height="32" rx="2" fill="url(#spanel)"/>
    <rect x="30" y="-16" width="56" height="32" rx="2" fill="url(#spanel)"/>
    <g stroke="#8fb0e6" stroke-width="0.8" opacity="0.5" stroke-linecap="round">
      <line x1="-68" y1="-16" x2="-68" y2="16"/>
      <line x1="-50" y1="-16" x2="-50" y2="16"/>
      <line x1="50" y1="-16" x2="50" y2="16"/>
      <line x1="68" y1="-16" x2="68" y2="16"/>
      <line x1="-86" y1="0" x2="-30" y2="0"/>
      <line x1="30" y1="0" x2="86" y2="0"/>
    </g>
    <rect x="-17" y="-21" width="34" height="42" rx="5" fill="url(#sgold)"/>
    <g stroke="#7a5a16" stroke-width="1" opacity="0.7">
      <line x1="-17" y1="-7" x2="17" y2="-7"/>
      <line x1="-17" y1="9" x2="17" y2="9"/>
      <line x1="0" y1="-21" x2="0" y2="21"/>
    </g>
    <g transform="translate(2 -30) rotate(-16)">
      <line x1="0" y1="14" x2="0" y2="-2" stroke="#6b7280" stroke-width="2.5"/>
      <ellipse cx="0" cy="-5" rx="16" ry="10" fill="url(#sdish)"/>
      <ellipse cx="0" cy="-5" rx="16" ry="10" fill="none" stroke="#2b3040" stroke-width="1.5"/>
      <line x1="0" y1="-5" x2="0" y2="-16" stroke="#6b7280" stroke-width="1.5"/>
      <circle cx="0" cy="-16" r="2" fill="#2b3040" stroke="none"/>
    </g>
  </g>
</svg>
