<svg xmlns="http://www.w3.org/2000/svg" viewBox="0 0 840 120" width="840" height="120" fill="none">
<g id="face_normal" transform="translate(60 62)">
<g id="StatusLight">
<ellipse cx="-30.0" cy="-6.0" rx="18.4" ry="20.0" fill="#23D9CE" stroke="#3E4A63" stroke-width="3.5" /><ellipse cx="-36.0" cy="-12.0" rx="6.8" ry="6.0" fill="#FFFFFF" stroke="none" stroke-width="0" /><ellipse cx="-22.8" cy="-0.4" rx="3.0" ry="2.6" fill="#FFFFFF" stroke="none" stroke-width="0" /><ellipse cx="30.0" cy="-6.0" rx="18.4" ry="20.0" fill="#23D9CE" stroke="#3E4A63" stroke-width="3.5" /><ellipse cx="24.0" cy="-12.0" rx="6.8" ry="6.0" fill="#FFFFFF" stroke="none" stroke-width="0" /><ellipse cx="37.2" cy="-0.4" rx="3.0" ry="2.6" fill="#FFFFFF" stroke="none" stroke-width="0" />
</g><ellipse cx="0.0" cy="27.0" rx="5.5" ry="4.0" fill="#46536B" stroke="#3E4A63" stroke-width="2.4499999999999997" /><ellipse cx="-64.0" cy="5.0" rx="10.0" ry="7.2" fill="#FFB1C1" stroke="none" stroke-width="0" /><ellipse cx="64.0" cy="5.0" rx="10.0" ry="7.2" fill="#FFB1C1" stroke="none" stroke-width="0" />
</g><g id="face_happy" transform="translate(180 62)">
<g id="StatusLight">
<path d="M -50.0 -1.0 Q -30.0 -27.0 -10.0 -1.0" fill="none" stroke="#3E4A63" stroke-width="5.95" stroke-linecap="round" stroke-linejoin="round" /><path d="M 10.0 -1.0 Q 30.0 -27.0 50.0 -1.0" fill="none" stroke="#3E4A63" stroke-width="5.95" stroke-linecap="round" stroke-linejoin="round" />
</g><path d="M -8 27.0 Q 0 36.0 8 27.0 Z" fill="#46536B" stroke="#3E4A63" stroke-width="2.8000000000000003" stroke-linecap="round" stroke-linejoin="round" /><ellipse cx="-64.0" cy="5.0" rx="10.0" ry="7.2" fill="#FFB1C1" stroke="none" stroke-width="0" /><ellipse cx="64.0" cy="5.0" rx="10.0" ry="7.2" fill="#FFB1C1" stroke="none" stroke-width="0" />
</g><g id="face_low_battery" transform="translate(300 62)">
<g id="StatusLight">
<ellipse cx="-30.0" cy="-6.0" rx="18.4" ry="20.0" fill="#FFB13D" stroke="#3E4A63" stroke-width="3.5" /><ellipse cx="-36.0" cy="-12.0" rx="6.8" ry="6.0" fill="#FFFFFF" stroke="none" stroke-width="0" /><ellipse cx="-22.8" cy="-0.4" rx="3.0" ry="2.6" fill="#FFFFFF" stroke="none" stroke-width="0" /><path d="M -51.0 -28.0 h 42.0 v 18.5 a 21.0 12.2 0 0 1 -42.0 0 Z" fill="#FFF7EF"/><path d="M -49.0 -9.4 Q -30.0 -4.4 -11.0 -9.4" fill="none" stroke="#3E4A63" stroke-width="3.15" stroke-linecap="round" stroke-linejoin="round" /><ellipse cx="30.0" cy="-6.0" rx="18.4" ry="20.0" fill="#FFB13D" stroke="#3E4A63" stroke-width="3.5" /><ellipse cx="24.0" cy="-12.0" rx="6.8" ry="6.0" fill="#FFFFFF" stroke="none" stroke-width="0" /><ellipse cx="37.2" cy="-0.4" rx="3.0" ry="2.6" fill="#FFFFFF" stroke="none" stroke-width="0" /><path d="M 9.0 -28.0 h 42.0 v 18.5 a 21.0 12.2 0 0 1 -42.0 0 Z" fill="#FFF7EF"/><path d="M 11.0 -9.4 Q 30.0 -4.4 49.0 -9.4" fill="none" stroke="#3E4A63" stroke-width="3.15" stroke-linecap="round" stroke-linejoin="round" />
</g><ellipse cx="0.0" cy="27.0" rx="5.5" ry="4.0" fill="#46536B" stroke="#3E4A63" stroke-width="2.4499999999999997" /><ellipse cx="-64.0" cy="5.0" rx="10.0" ry="7.2" fill="#FFB1C1" stroke="none" stroke-width="0" /><ellipse cx="64.0" cy="5.0" rx="10.0" ry="7.2" fill="#FFB1C1" stroke="none" stroke-width="0" />
</g><g id="face_data_full" transform="translate(420 62)">
<g id="StatusLight">
<ellipse cx="-30.0" cy="-6.0" rx="18.4" ry="20.0" fill="#23D9CE" stroke="#3E4A63" stroke-width="3.5" /><ellipse cx="-36.0" cy="-12.0" rx="6.8" ry="6.0" fill="#FFFFFF" stroke="none" stroke-width="0" /><ellipse cx="-22.8" cy="-0.4" rx="3.0" ry="2.6" fill="#FFFFFF" stroke="none" stroke-width="0" /><ellipse cx="30.0" cy="-6.0" rx="18.4" ry="20.0" fill="#23D9CE" stroke="#3E4A63" stroke-width="3.5" /><ellipse cx="24.0" cy="-12.0" rx="6.8" ry="6.0" fill="#FFFFFF" stroke="none" stroke-width="0" /><ellipse cx="37.2" cy="-0.4" rx="3.0" ry="2.6" fill="#FFFFFF" stroke="none" stroke-width="0" />
</g><ellipse cx="0.0" cy="27.0" rx="5.5" ry="4.0" fill="#46536B" stroke="#3E4A63" stroke-width="2.4499999999999997" /><ellipse cx="-64.0" cy="5.0" rx="10.0" ry="7.2" fill="#FFB1C1" stroke="none" stroke-width="0" /><ellipse cx="64.0" cy="5.0" rx="10.0" ry="7.2" fill="#FFB1C1" stroke="none" stroke-width="0" />
</g><g id="face_sulky" transform="translate(540 62)">
<g id="StatusLight">
<ellipse cx="-30.0" cy="-6.0" rx="18.4" ry="20.0" fill="#E8B84A" stroke="#3E4A63" stroke-width="3.5" /><ellipse cx="-36.0" cy="-12.0" rx="6.8" ry="6.0" fill="#FFFFFF" stroke="none" stroke-width="0" /><ellipse cx="-22.8" cy="-0.4" rx="3.0" ry="2.6" fill="#FFFFFF" stroke="none" stroke-width="0" /><path d="M -51.0 -28.0 h 42.0 v 13.2 a 21.0 14.7 0 0 1 -42.0 0 Z" fill="#FFF7EF"/><path d="M -49.0 -14.4 Q -30.0 -9.4 -11.0 -14.4" fill="none" stroke="#3E4A63" stroke-width="3.15" stroke-linecap="round" stroke-linejoin="round" /><path d="M -12.0 -31.0 L -44.0 -21.0" fill="none" stroke="#3E4A63" stroke-width="3.5" stroke-linecap="round" stroke-linejoin="round" /><ellipse cx="30.0" cy="-6.0" rx="18.4" ry="20.0" fill="#E8B84A" stroke="#3E4A63" stroke-width="3.5" /><ellipse cx="24.0" cy="-12.0" rx="6.8" ry="6.0" fill="#FFFFFF" stroke="none" stroke-width="0" /><ellipse cx="37.2" cy="-0.4" rx="3.0" ry="2.6" fill="#FFFFFF" stroke="none" stroke-width="0" /><path d="M 9.0 -28.0 h 42.0 v 13.2 a 21.0 14.7 0 0 1 -42.0 0 Z" fill="#FFF7EF"/><path d="M 11.0 -14.4 Q 30.0 -9.4 49.0 -14.4" fill="none" stroke="#3E4A63" stroke-width="3.15" stroke-linecap="round" stroke-linejoin="round" /><path d="M 12.0 -31.0 L 44.0 -21.0" fill="none" stroke="#3E4A63" stroke-width="3.5" stroke-linecap="round" stroke-linejoin="round" />
</g><path d="M -7 31.0 Q 0 24.0 7 31.0" fill="none" stroke="#3E4A63" stroke-width="3.5" stroke-linecap="round" stroke-linejoin="round" /><ellipse cx="-64.0" cy="5.0" rx="10.0" ry="7.2" fill="#FFB1C1" stroke="none" stroke-width="0" /><ellipse cx="64.0" cy="5.0" rx="10.0" ry="7.2" fill="#FFB1C1" stroke="none" stroke-width="0" />
</g><g id="face_powersave" transform="translate(660 62)">
<g id="StatusLight">
<ellipse cx="-30.0" cy="-6.0" rx="18.4" ry="20.0" fill="#FF8A3D" stroke="#3E4A63" stroke-width="3.5" /><ellipse cx="-36.0" cy="-12.0" rx="6.8" ry="6.0" fill="#FFFFFF" stroke="none" stroke-width="0" /><ellipse cx="-22.8" cy="-0.4" rx="3.0" ry="2.6" fill="#FFFFFF" stroke="none" stroke-width="0" /><path d="M -51.0 -28.0 h 42.0 v 27.3 a 21.0 8.0 0 0 1 -42.0 0 Z" fill="#FFF7EF"/><path d="M -49.0 -1.0 Q -30.0 4.0 -11.0 -1.0" fill="none" stroke="#3E4A63" stroke-width="3.15" stroke-linecap="round" stroke-linejoin="round" /><ellipse cx="30.0" cy="-6.0" rx="18.4" ry="20.0" fill="#FF8A3D" stroke="#3E4A63" stroke-width="3.5" /><ellipse cx="24.0" cy="-12.0" rx="6.8" ry="6.0" fill="#FFFFFF" stroke="none" stroke-width="0" /><ellipse cx="37.2" cy="-0.4" rx="3.0" ry="2.6" fill="#FFFFFF" stroke="none" stroke-width="0" /><path d="M 9.0 -28.0 h 42.0 v 27.3 a 21.0 8.0 0 0 1 -42.0 0 Z" fill="#FFF7EF"/><path d="M 11.0 -1.0 Q 30.0 4.0 49.0 -1.0" fill="none" stroke="#3E4A63" stroke-width="3.15" stroke-linecap="round" stroke-linejoin="round" />
</g><ellipse cx="0.0" cy="28.0" rx="4.5" ry="3.2" fill="#46536B" stroke="#3E4A63" stroke-width="2.4499999999999997" /><ellipse cx="-64.0" cy="5.0" rx="10.0" ry="7.2" fill="#FFB1C1" stroke="none" stroke-width="0" /><ellipse cx="64.0" cy="5.0" rx="10.0" ry="7.2" fill="#FFB1C1" stroke="none" stroke-width="0" />
</g><g id="face_hibernate" transform="translate(780 62)">
<g id="StatusLight">
<path d="M -48.0 -6.0 Q -30.0 11.0 -12.0 -6.0" fill="none" stroke="#3E4A63" stroke-width="5.95" stroke-linecap="round" stroke-linejoin="round" /><path d="M 12.0 -6.0 Q 30.0 11.0 48.0 -6.0" fill="none" stroke="#3E4A63" stroke-width="5.95" stroke-linecap="round" stroke-linejoin="round" />
</g><ellipse cx="0.0" cy="28.0" rx="4.5" ry="3.2" fill="#46536B" stroke="#3E4A63" stroke-width="2.4499999999999997" /><ellipse cx="-64.0" cy="5.0" rx="10.0" ry="7.2" fill="#FFB1C1" stroke="none" stroke-width="0" /><ellipse cx="64.0" cy="5.0" rx="10.0" ry="7.2" fill="#FFB1C1" stroke="none" stroke-width="0" />
</g>
</svg>
